<mxfile host="Electron" agent="Mozilla/5.0 (Windows NT 10.0; Win64; x64) AppleWebKit/537.36 (KHTML, like Gecko) draw.io/28.2.5 Chrome/138.0.7204.251 Electron/37.6.1 Safari/537.36" version="28.2.5">
  <diagram name="Page-1" id="UifAJ5-_W7gbyCAFl0z7">
    <mxGraphModel dx="961" dy="597" grid="1" gridSize="10" guides="1" tooltips="1" connect="1" arrows="1" fold="1" page="1" pageScale="1" pageWidth="850" pageHeight="1100" math="0" shadow="0">
      <root>
        <mxCell id="0" />
        <mxCell id="1" parent="0" />
        <mxCell id="469mjGibJvNOkohn6Mcn-1" value="USER" style="rounded=0;whiteSpace=wrap;html=1;fontSize=21;" parent="1" vertex="1">
          <mxGeometry x="1200" y="160" width="100" height="40" as="geometry" />
        </mxCell>
        <mxCell id="469mjGibJvNOkohn6Mcn-4" value="&lt;u&gt;Id&lt;/u&gt;" style="ellipse;whiteSpace=wrap;html=1;" parent="1" vertex="1">
          <mxGeometry x="1000" y="100" width="80" height="30" as="geometry" />
        </mxCell>
        <mxCell id="469mjGibJvNOkohn6Mcn-5" value="Name" style="ellipse;whiteSpace=wrap;html=1;" parent="1" vertex="1">
          <mxGeometry x="1120" y="75" width="70" height="40" as="geometry" />
        </mxCell>
        <mxCell id="469mjGibJvNOkohn6Mcn-6" value="F_name" style="ellipse;whiteSpace=wrap;html=1;" parent="1" vertex="1">
          <mxGeometry x="1070" y="10" width="60" height="30" as="geometry" />
        </mxCell>
        <mxCell id="469mjGibJvNOkohn6Mcn-7" value="L_name" style="ellipse;whiteSpace=wrap;html=1;" parent="1" vertex="1">
          <mxGeometry x="1215" y="20" width="70" height="30" as="geometry" />
        </mxCell>
        <mxCell id="469mjGibJvNOkohn6Mcn-9" value="" style="endArrow=none;html=1;rounded=0;entryX=0;entryY=1;entryDx=0;entryDy=0;exitX=1;exitY=0;exitDx=0;exitDy=0;" parent="1" source="469mjGibJvNOkohn6Mcn-5" target="469mjGibJvNOkohn6Mcn-7" edge="1">
          <mxGeometry width="50" height="50" relative="1" as="geometry">
            <mxPoint x="530" y="360" as="sourcePoint" />
            <mxPoint x="580" y="310" as="targetPoint" />
          </mxGeometry>
        </mxCell>
        <mxCell id="469mjGibJvNOkohn6Mcn-11" value="" style="endArrow=none;html=1;rounded=0;entryX=0.5;entryY=1;entryDx=0;entryDy=0;exitX=1;exitY=0;exitDx=0;exitDy=0;" parent="1" source="469mjGibJvNOkohn6Mcn-5" target="469mjGibJvNOkohn6Mcn-6" edge="1">
          <mxGeometry width="50" height="50" relative="1" as="geometry">
            <mxPoint x="530" y="360" as="sourcePoint" />
            <mxPoint x="580" y="310" as="targetPoint" />
          </mxGeometry>
        </mxCell>
        <mxCell id="469mjGibJvNOkohn6Mcn-12" value="Nic" style="ellipse;whiteSpace=wrap;html=1;" parent="1" vertex="1">
          <mxGeometry x="1350" y="50" width="80" height="30" as="geometry" />
        </mxCell>
        <mxCell id="469mjGibJvNOkohn6Mcn-13" value="Email" style="ellipse;whiteSpace=wrap;html=1;" parent="1" vertex="1">
          <mxGeometry x="1470" y="80" width="60" height="30" as="geometry" />
        </mxCell>
        <mxCell id="469mjGibJvNOkohn6Mcn-15" value="Contact__no" style="ellipse;whiteSpace=wrap;html=1;" parent="1" vertex="1">
          <mxGeometry x="1450" y="130" width="80" height="40" as="geometry" />
        </mxCell>
        <mxCell id="469mjGibJvNOkohn6Mcn-19" value="" style="endArrow=none;html=1;rounded=0;entryX=1;entryY=1;entryDx=0;entryDy=0;exitX=0.25;exitY=0;exitDx=0;exitDy=0;" parent="1" source="469mjGibJvNOkohn6Mcn-1" target="469mjGibJvNOkohn6Mcn-5" edge="1">
          <mxGeometry width="50" height="50" relative="1" as="geometry">
            <mxPoint x="530" y="360" as="sourcePoint" />
            <mxPoint x="580" y="310" as="targetPoint" />
          </mxGeometry>
        </mxCell>
        <mxCell id="469mjGibJvNOkohn6Mcn-20" value="" style="endArrow=none;html=1;rounded=0;entryX=0.5;entryY=1;entryDx=0;entryDy=0;exitX=0.25;exitY=0;exitDx=0;exitDy=0;" parent="1" source="469mjGibJvNOkohn6Mcn-1" target="469mjGibJvNOkohn6Mcn-12" edge="1">
          <mxGeometry width="50" height="50" relative="1" as="geometry">
            <mxPoint x="530" y="360" as="sourcePoint" />
            <mxPoint x="580" y="310" as="targetPoint" />
          </mxGeometry>
        </mxCell>
        <mxCell id="469mjGibJvNOkohn6Mcn-21" value="" style="endArrow=none;html=1;rounded=0;entryX=0;entryY=1;entryDx=0;entryDy=0;exitX=0.25;exitY=0;exitDx=0;exitDy=0;" parent="1" source="469mjGibJvNOkohn6Mcn-1" target="469mjGibJvNOkohn6Mcn-13" edge="1">
          <mxGeometry width="50" height="50" relative="1" as="geometry">
            <mxPoint x="530" y="360" as="sourcePoint" />
            <mxPoint x="580" y="310" as="targetPoint" />
          </mxGeometry>
        </mxCell>
        <mxCell id="469mjGibJvNOkohn6Mcn-22" value="" style="endArrow=none;html=1;rounded=0;entryX=0;entryY=0.5;entryDx=0;entryDy=0;exitX=0.25;exitY=0;exitDx=0;exitDy=0;" parent="1" source="469mjGibJvNOkohn6Mcn-1" target="469mjGibJvNOkohn6Mcn-15" edge="1">
          <mxGeometry width="50" height="50" relative="1" as="geometry">
            <mxPoint x="530" y="360" as="sourcePoint" />
            <mxPoint x="580" y="310" as="targetPoint" />
          </mxGeometry>
        </mxCell>
        <mxCell id="469mjGibJvNOkohn6Mcn-23" value="" style="endArrow=none;html=1;rounded=0;entryX=0.25;entryY=0;entryDx=0;entryDy=0;exitX=1;exitY=1;exitDx=0;exitDy=0;" parent="1" source="469mjGibJvNOkohn6Mcn-4" target="469mjGibJvNOkohn6Mcn-1" edge="1">
          <mxGeometry width="50" height="50" relative="1" as="geometry">
            <mxPoint x="530" y="360" as="sourcePoint" />
            <mxPoint x="580" y="310" as="targetPoint" />
          </mxGeometry>
        </mxCell>
        <mxCell id="469mjGibJvNOkohn6Mcn-25" value="d" style="ellipse;whiteSpace=wrap;html=1;aspect=fixed;fontSize=17;" parent="1" vertex="1">
          <mxGeometry x="1210" y="290" width="80" height="80" as="geometry" />
        </mxCell>
        <mxCell id="469mjGibJvNOkohn6Mcn-26" value="" style="endArrow=none;html=1;rounded=0;entryX=0.5;entryY=1;entryDx=0;entryDy=0;exitX=0.5;exitY=0;exitDx=0;exitDy=0;" parent="1" source="469mjGibJvNOkohn6Mcn-25" target="469mjGibJvNOkohn6Mcn-1" edge="1">
          <mxGeometry width="50" height="50" relative="1" as="geometry">
            <mxPoint x="530" y="360" as="sourcePoint" />
            <mxPoint x="580" y="310" as="targetPoint" />
          </mxGeometry>
        </mxCell>
        <mxCell id="469mjGibJvNOkohn6Mcn-27" value="LECTURER" style="rounded=0;whiteSpace=wrap;html=1;" parent="1" vertex="1">
          <mxGeometry x="120" y="620" width="120" height="60" as="geometry" />
        </mxCell>
        <mxCell id="469mjGibJvNOkohn6Mcn-28" value="TECHNICAL_OFFICER" style="rounded=0;whiteSpace=wrap;html=1;" parent="1" vertex="1">
          <mxGeometry x="740" y="610" width="150" height="60" as="geometry" />
        </mxCell>
        <mxCell id="469mjGibJvNOkohn6Mcn-29" value="STUDENT" style="rounded=0;whiteSpace=wrap;html=1;" parent="1" vertex="1">
          <mxGeometry x="1370" y="620" width="120" height="60" as="geometry" />
        </mxCell>
        <mxCell id="469mjGibJvNOkohn6Mcn-30" value="ADMIN" style="rounded=0;whiteSpace=wrap;html=1;" parent="1" vertex="1">
          <mxGeometry x="1940" y="630" width="120" height="60" as="geometry" />
        </mxCell>
        <mxCell id="469mjGibJvNOkohn6Mcn-31" value="DEAN" style="rounded=0;whiteSpace=wrap;html=1;" parent="1" vertex="1">
          <mxGeometry x="2400" y="590" width="120" height="60" as="geometry" />
        </mxCell>
        <mxCell id="469mjGibJvNOkohn6Mcn-37" value="Desingation" style="ellipse;whiteSpace=wrap;html=1;" parent="1" vertex="1">
          <mxGeometry x="20" y="500" width="80" height="50" as="geometry" />
        </mxCell>
        <mxCell id="469mjGibJvNOkohn6Mcn-38" value="Degree" style="ellipse;shape=doubleEllipse;margin=3;whiteSpace=wrap;html=1;align=center;" parent="1" vertex="1">
          <mxGeometry x="130" y="460" width="100" height="40" as="geometry" />
        </mxCell>
        <mxCell id="469mjGibJvNOkohn6Mcn-40" value="&lt;u&gt;Lec_id&lt;/u&gt;" style="ellipse;whiteSpace=wrap;html=1;align=center;" parent="1" vertex="1">
          <mxGeometry x="260" y="480" width="100" height="40" as="geometry" />
        </mxCell>
        <mxCell id="469mjGibJvNOkohn6Mcn-42" value="" style="ellipse;whiteSpace=wrap;html=1;align=center;aspect=fixed;fillColor=none;strokeColor=none;resizable=0;perimeter=centerPerimeter;rotatable=0;allowArrows=0;points=[];outlineConnect=1;" parent="1" vertex="1">
          <mxGeometry x="830" y="420" width="10" height="10" as="geometry" />
        </mxCell>
        <mxCell id="469mjGibJvNOkohn6Mcn-46" value="" style="endArrow=none;html=1;rounded=0;exitX=0;exitY=0.5;exitDx=0;exitDy=0;entryX=-0.005;entryY=0.564;entryDx=0;entryDy=0;entryPerimeter=0;" parent="1" source="469mjGibJvNOkohn6Mcn-45" target="469mjGibJvNOkohn6Mcn-45" edge="1">
          <mxGeometry width="50" height="50" relative="1" as="geometry">
            <mxPoint x="1200" y="340" as="sourcePoint" />
            <mxPoint x="800" y="410" as="targetPoint" />
          </mxGeometry>
        </mxCell>
        <mxCell id="469mjGibJvNOkohn6Mcn-47" value="" style="endArrow=none;html=1;rounded=0;exitX=0;exitY=0.5;exitDx=0;exitDy=0;entryX=1;entryY=0;entryDx=0;entryDy=0;" parent="1" source="mgSoafnXSVISCSBCxPJr-2" target="469mjGibJvNOkohn6Mcn-27" edge="1">
          <mxGeometry width="50" height="50" relative="1" as="geometry">
            <mxPoint x="1210" y="330" as="sourcePoint" />
            <mxPoint x="815" y="455" as="targetPoint" />
          </mxGeometry>
        </mxCell>
        <mxCell id="469mjGibJvNOkohn6Mcn-45" value="" style="ellipse;whiteSpace=wrap;html=1;align=center;aspect=fixed;fillColor=none;strokeColor=none;resizable=0;perimeter=centerPerimeter;rotatable=0;allowArrows=0;points=[];outlineConnect=1;" parent="1" vertex="1">
          <mxGeometry x="810" y="450" width="10" height="10" as="geometry" />
        </mxCell>
        <mxCell id="469mjGibJvNOkohn6Mcn-49" value="" style="ellipse;whiteSpace=wrap;html=1;align=center;aspect=fixed;fillColor=none;strokeColor=none;resizable=0;perimeter=centerPerimeter;rotatable=0;allowArrows=0;points=[];outlineConnect=1;" parent="1" vertex="1">
          <mxGeometry x="1000" y="330" width="10" height="10" as="geometry" />
        </mxCell>
        <mxCell id="469mjGibJvNOkohn6Mcn-51" value="" style="ellipse;whiteSpace=wrap;html=1;align=center;aspect=fixed;fillColor=none;strokeColor=none;resizable=0;perimeter=centerPerimeter;rotatable=0;allowArrows=0;points=[];outlineConnect=1;" parent="1" vertex="1">
          <mxGeometry x="1000" y="330" width="10" height="10" as="geometry" />
        </mxCell>
        <mxCell id="469mjGibJvNOkohn6Mcn-53" value="" style="ellipse;whiteSpace=wrap;html=1;align=center;aspect=fixed;fillColor=none;strokeColor=none;resizable=0;perimeter=centerPerimeter;rotatable=0;allowArrows=0;points=[];outlineConnect=1;" parent="1" vertex="1">
          <mxGeometry x="1000" y="330" width="10" height="10" as="geometry" />
        </mxCell>
        <mxCell id="469mjGibJvNOkohn6Mcn-54" value="" style="endArrow=none;html=1;rounded=0;entryX=0;entryY=1;entryDx=0;entryDy=0;exitX=1;exitY=0;exitDx=0;exitDy=0;" parent="1" source="469mjGibJvNOkohn6Mcn-28" target="469mjGibJvNOkohn6Mcn-25" edge="1">
          <mxGeometry width="50" height="50" relative="1" as="geometry">
            <mxPoint x="1050" y="490" as="sourcePoint" />
            <mxPoint x="1040" y="310" as="targetPoint" />
          </mxGeometry>
        </mxCell>
        <mxCell id="469mjGibJvNOkohn6Mcn-55" value="" style="endArrow=none;html=1;rounded=0;entryX=0.5;entryY=1;entryDx=0;entryDy=0;exitX=1;exitY=0.5;exitDx=0;exitDy=0;exitPerimeter=0;" parent="1" source="mgSoafnXSVISCSBCxPJr-6" target="469mjGibJvNOkohn6Mcn-25" edge="1">
          <mxGeometry width="50" height="50" relative="1" as="geometry">
            <mxPoint x="1310" y="470" as="sourcePoint" />
            <mxPoint x="1150" y="280" as="targetPoint" />
          </mxGeometry>
        </mxCell>
        <mxCell id="469mjGibJvNOkohn6Mcn-56" value="" style="endArrow=none;html=1;rounded=0;entryX=1;entryY=1;entryDx=0;entryDy=0;exitX=0;exitY=0;exitDx=0;exitDy=0;" parent="1" source="469mjGibJvNOkohn6Mcn-30" target="469mjGibJvNOkohn6Mcn-25" edge="1">
          <mxGeometry width="50" height="50" relative="1" as="geometry">
            <mxPoint x="1420" y="420" as="sourcePoint" />
            <mxPoint x="1150" y="280" as="targetPoint" />
          </mxGeometry>
        </mxCell>
        <mxCell id="469mjGibJvNOkohn6Mcn-58" value="" style="ellipse;whiteSpace=wrap;html=1;align=center;aspect=fixed;fillColor=none;strokeColor=none;resizable=0;perimeter=centerPerimeter;rotatable=0;allowArrows=0;points=[];outlineConnect=1;" parent="1" vertex="1">
          <mxGeometry x="1570" y="90" width="10" height="10" as="geometry" />
        </mxCell>
        <mxCell id="469mjGibJvNOkohn6Mcn-59" value="" style="endArrow=none;html=1;rounded=0;entryX=1;entryY=0.5;entryDx=0;entryDy=0;exitX=1;exitY=0.5;exitDx=0;exitDy=0;exitPerimeter=0;" parent="1" source="mgSoafnXSVISCSBCxPJr-9" target="469mjGibJvNOkohn6Mcn-25" edge="1">
          <mxGeometry width="50" height="50" relative="1" as="geometry">
            <mxPoint x="1580" y="390" as="sourcePoint" />
            <mxPoint x="1610" y="70" as="targetPoint" />
          </mxGeometry>
        </mxCell>
        <mxCell id="Wp1VHhU4FTjO8Ii-gMhq-1" value="" style="endArrow=none;html=1;rounded=0;exitX=1;exitY=1;exitDx=0;exitDy=0;entryX=0.5;entryY=0;entryDx=0;entryDy=0;" parent="1" source="469mjGibJvNOkohn6Mcn-37" target="469mjGibJvNOkohn6Mcn-27" edge="1">
          <mxGeometry width="50" height="50" relative="1" as="geometry">
            <mxPoint x="370" y="460" as="sourcePoint" />
            <mxPoint x="420" y="410" as="targetPoint" />
          </mxGeometry>
        </mxCell>
        <mxCell id="Wp1VHhU4FTjO8Ii-gMhq-2" value="" style="endArrow=none;html=1;rounded=0;exitX=0.5;exitY=1;exitDx=0;exitDy=0;entryX=0.5;entryY=0;entryDx=0;entryDy=0;" parent="1" source="469mjGibJvNOkohn6Mcn-38" target="469mjGibJvNOkohn6Mcn-27" edge="1">
          <mxGeometry width="50" height="50" relative="1" as="geometry">
            <mxPoint x="370" y="460" as="sourcePoint" />
            <mxPoint x="420" y="410" as="targetPoint" />
          </mxGeometry>
        </mxCell>
        <mxCell id="Wp1VHhU4FTjO8Ii-gMhq-3" value="" style="endArrow=none;html=1;rounded=0;exitX=0.5;exitY=1;exitDx=0;exitDy=0;entryX=0.5;entryY=0;entryDx=0;entryDy=0;" parent="1" source="469mjGibJvNOkohn6Mcn-40" target="469mjGibJvNOkohn6Mcn-27" edge="1">
          <mxGeometry width="50" height="50" relative="1" as="geometry">
            <mxPoint x="370" y="460" as="sourcePoint" />
            <mxPoint x="420" y="410" as="targetPoint" />
          </mxGeometry>
        </mxCell>
        <mxCell id="Wp1VHhU4FTjO8Ii-gMhq-4" value="Hash_pwd" style="ellipse;whiteSpace=wrap;html=1;" parent="1" vertex="1">
          <mxGeometry x="640" y="530" width="80" height="40" as="geometry" />
        </mxCell>
        <mxCell id="Wp1VHhU4FTjO8Ii-gMhq-5" value="&lt;u&gt;id&lt;/u&gt;" style="ellipse;whiteSpace=wrap;html=1;" parent="1" vertex="1">
          <mxGeometry x="790" y="535" width="70" height="30" as="geometry" />
        </mxCell>
        <mxCell id="Wp1VHhU4FTjO8Ii-gMhq-6" value="" style="endArrow=none;html=1;rounded=0;entryX=0.5;entryY=1;entryDx=0;entryDy=0;exitX=0.5;exitY=0;exitDx=0;exitDy=0;" parent="1" source="469mjGibJvNOkohn6Mcn-28" target="Wp1VHhU4FTjO8Ii-gMhq-4" edge="1">
          <mxGeometry width="50" height="50" relative="1" as="geometry">
            <mxPoint x="630" y="650" as="sourcePoint" />
            <mxPoint x="680" y="600" as="targetPoint" />
          </mxGeometry>
        </mxCell>
        <mxCell id="Wp1VHhU4FTjO8Ii-gMhq-8" value="" style="endArrow=none;html=1;rounded=0;entryX=0.5;entryY=1;entryDx=0;entryDy=0;exitX=0.5;exitY=0;exitDx=0;exitDy=0;" parent="1" source="469mjGibJvNOkohn6Mcn-28" target="Wp1VHhU4FTjO8Ii-gMhq-5" edge="1">
          <mxGeometry width="50" height="50" relative="1" as="geometry">
            <mxPoint x="630" y="650" as="sourcePoint" />
            <mxPoint x="680" y="600" as="targetPoint" />
          </mxGeometry>
        </mxCell>
        <mxCell id="Wp1VHhU4FTjO8Ii-gMhq-9" value="Dob" style="ellipse;whiteSpace=wrap;html=1;" parent="1" vertex="1">
          <mxGeometry x="1420" y="530" width="60" height="30" as="geometry" />
        </mxCell>
        <mxCell id="Wp1VHhU4FTjO8Ii-gMhq-10" value="&lt;u&gt;Reg_no&lt;/u&gt;" style="ellipse;whiteSpace=wrap;html=1;" parent="1" vertex="1">
          <mxGeometry x="1515" y="530" width="65" height="35" as="geometry" />
        </mxCell>
        <mxCell id="Wp1VHhU4FTjO8Ii-gMhq-11" value="Year" style="ellipse;whiteSpace=wrap;html=1;" parent="1" vertex="1">
          <mxGeometry x="1630" y="580" width="60" height="30" as="geometry" />
        </mxCell>
        <mxCell id="Wp1VHhU4FTjO8Ii-gMhq-12" value="" style="endArrow=none;html=1;rounded=0;entryX=1;entryY=0;entryDx=0;entryDy=0;exitX=0.5;exitY=1;exitDx=0;exitDy=0;" parent="1" source="Wp1VHhU4FTjO8Ii-gMhq-9" target="469mjGibJvNOkohn6Mcn-29" edge="1">
          <mxGeometry width="50" height="50" relative="1" as="geometry">
            <mxPoint x="1400" y="650" as="sourcePoint" />
            <mxPoint x="1450" y="600" as="targetPoint" />
          </mxGeometry>
        </mxCell>
        <mxCell id="Wp1VHhU4FTjO8Ii-gMhq-13" value="" style="endArrow=none;html=1;rounded=0;exitX=1;exitY=0;exitDx=0;exitDy=0;entryX=0.5;entryY=1;entryDx=0;entryDy=0;" parent="1" source="469mjGibJvNOkohn6Mcn-29" target="Wp1VHhU4FTjO8Ii-gMhq-10" edge="1">
          <mxGeometry width="50" height="50" relative="1" as="geometry">
            <mxPoint x="1400" y="650" as="sourcePoint" />
            <mxPoint x="1450" y="600" as="targetPoint" />
          </mxGeometry>
        </mxCell>
        <mxCell id="Wp1VHhU4FTjO8Ii-gMhq-15" value="" style="endArrow=none;html=1;rounded=0;entryX=0;entryY=1;entryDx=0;entryDy=0;exitX=1;exitY=0;exitDx=0;exitDy=0;" parent="1" source="469mjGibJvNOkohn6Mcn-29" target="Wp1VHhU4FTjO8Ii-gMhq-11" edge="1">
          <mxGeometry width="50" height="50" relative="1" as="geometry">
            <mxPoint x="1530" y="680" as="sourcePoint" />
            <mxPoint x="1450" y="600" as="targetPoint" />
          </mxGeometry>
        </mxCell>
        <mxCell id="Wp1VHhU4FTjO8Ii-gMhq-16" value="Hash_pwd" style="ellipse;whiteSpace=wrap;html=1;" parent="1" vertex="1">
          <mxGeometry x="2070" y="550" width="80" height="40" as="geometry" />
        </mxCell>
        <mxCell id="Wp1VHhU4FTjO8Ii-gMhq-17" value="" style="endArrow=none;html=1;rounded=0;exitX=1;exitY=0;exitDx=0;exitDy=0;entryX=0.5;entryY=1;entryDx=0;entryDy=0;" parent="1" source="469mjGibJvNOkohn6Mcn-30" target="Wp1VHhU4FTjO8Ii-gMhq-16" edge="1">
          <mxGeometry width="50" height="50" relative="1" as="geometry">
            <mxPoint x="2100" y="650" as="sourcePoint" />
            <mxPoint x="2150" y="600" as="targetPoint" />
          </mxGeometry>
        </mxCell>
        <mxCell id="Wp1VHhU4FTjO8Ii-gMhq-18" value="Appoint_date" style="ellipse;whiteSpace=wrap;html=1;" parent="1" vertex="1">
          <mxGeometry x="2430" y="500" width="100" height="50" as="geometry" />
        </mxCell>
        <mxCell id="Wp1VHhU4FTjO8Ii-gMhq-19" value="Office_room" style="ellipse;whiteSpace=wrap;html=1;" parent="1" vertex="1">
          <mxGeometry x="2320" y="505" width="80" height="40" as="geometry" />
        </mxCell>
        <mxCell id="Wp1VHhU4FTjO8Ii-gMhq-20" value="" style="endArrow=none;html=1;rounded=0;entryX=0.5;entryY=1;entryDx=0;entryDy=0;exitX=0.5;exitY=0;exitDx=0;exitDy=0;" parent="1" source="469mjGibJvNOkohn6Mcn-31" target="Wp1VHhU4FTjO8Ii-gMhq-19" edge="1">
          <mxGeometry width="50" height="50" relative="1" as="geometry">
            <mxPoint x="2100" y="650" as="sourcePoint" />
            <mxPoint x="2150" y="600" as="targetPoint" />
          </mxGeometry>
        </mxCell>
        <mxCell id="Wp1VHhU4FTjO8Ii-gMhq-21" value="" style="endArrow=none;html=1;rounded=0;entryX=0.5;entryY=1;entryDx=0;entryDy=0;exitX=0.5;exitY=0;exitDx=0;exitDy=0;" parent="1" source="469mjGibJvNOkohn6Mcn-31" target="Wp1VHhU4FTjO8Ii-gMhq-18" edge="1">
          <mxGeometry width="50" height="50" relative="1" as="geometry">
            <mxPoint x="2100" y="650" as="sourcePoint" />
            <mxPoint x="2150" y="600" as="targetPoint" />
          </mxGeometry>
        </mxCell>
        <mxCell id="Wp1VHhU4FTjO8Ii-gMhq-23" value="MENTEES" style="rhombus;whiteSpace=wrap;html=1;" parent="1" vertex="1">
          <mxGeometry x="765" y="760" width="120" height="80" as="geometry" />
        </mxCell>
        <mxCell id="Wp1VHhU4FTjO8Ii-gMhq-26" value="" style="endArrow=none;html=1;rounded=0;exitX=1;exitY=0.5;exitDx=0;exitDy=0;" parent="1" source="Wp1VHhU4FTjO8Ii-gMhq-23" edge="1">
          <mxGeometry width="50" height="50" relative="1" as="geometry">
            <mxPoint x="950" y="800" as="sourcePoint" />
            <mxPoint x="1390" y="790" as="targetPoint" />
          </mxGeometry>
        </mxCell>
        <mxCell id="Wp1VHhU4FTjO8Ii-gMhq-27" value="" style="endArrow=none;html=1;rounded=0;exitX=0.5;exitY=1;exitDx=0;exitDy=0;" parent="1" source="469mjGibJvNOkohn6Mcn-29" edge="1">
          <mxGeometry width="50" height="50" relative="1" as="geometry">
            <mxPoint x="950" y="800" as="sourcePoint" />
            <mxPoint x="1390" y="790" as="targetPoint" />
          </mxGeometry>
        </mxCell>
        <mxCell id="Wp1VHhU4FTjO8Ii-gMhq-28" value="" style="endArrow=none;html=1;rounded=0;entryX=0.75;entryY=1;entryDx=0;entryDy=0;exitX=0;exitY=0.5;exitDx=0;exitDy=0;" parent="1" source="Wp1VHhU4FTjO8Ii-gMhq-23" target="469mjGibJvNOkohn6Mcn-27" edge="1">
          <mxGeometry width="50" height="50" relative="1" as="geometry">
            <mxPoint x="950" y="800" as="sourcePoint" />
            <mxPoint x="1000" y="750" as="targetPoint" />
            <Array as="points">
              <mxPoint x="210" y="800" />
            </Array>
          </mxGeometry>
        </mxCell>
        <mxCell id="Wp1VHhU4FTjO8Ii-gMhq-29" value="Has" style="rhombus;whiteSpace=wrap;html=1;" parent="1" vertex="1">
          <mxGeometry x="760" y="930" width="110" height="70" as="geometry" />
        </mxCell>
        <mxCell id="Wp1VHhU4FTjO8Ii-gMhq-30" value="" style="endArrow=none;html=1;rounded=0;exitX=1;exitY=0.5;exitDx=0;exitDy=0;entryX=0.5;entryY=1;entryDx=0;entryDy=0;" parent="1" source="Wp1VHhU4FTjO8Ii-gMhq-29" target="469mjGibJvNOkohn6Mcn-29" edge="1">
          <mxGeometry width="50" height="50" relative="1" as="geometry">
            <mxPoint x="690" y="860" as="sourcePoint" />
            <mxPoint x="1290" y="750" as="targetPoint" />
            <Array as="points">
              <mxPoint x="1440" y="810" />
            </Array>
          </mxGeometry>
        </mxCell>
        <mxCell id="Wp1VHhU4FTjO8Ii-gMhq-35" value="MARKS" style="rounded=0;whiteSpace=wrap;html=1;" parent="1" vertex="1">
          <mxGeometry x="640" y="1120" width="120" height="60" as="geometry" />
        </mxCell>
        <mxCell id="Wp1VHhU4FTjO8Ii-gMhq-36" value="" style="endArrow=none;html=1;rounded=0;entryX=0.5;entryY=1;entryDx=0;entryDy=0;exitX=0.5;exitY=0;exitDx=0;exitDy=0;" parent="1" source="Wp1VHhU4FTjO8Ii-gMhq-35" target="Wp1VHhU4FTjO8Ii-gMhq-29" edge="1">
          <mxGeometry width="50" height="50" relative="1" as="geometry">
            <mxPoint x="1160" y="1180" as="sourcePoint" />
            <mxPoint x="1210" y="1130" as="targetPoint" />
          </mxGeometry>
        </mxCell>
        <mxCell id="AB7soGHePCYamvRZRI3P-5" value="Mark_id" style="ellipse;whiteSpace=wrap;html=1;fontStyle=4" parent="1" vertex="1">
          <mxGeometry x="810" y="1180" width="100" height="40" as="geometry" />
        </mxCell>
        <mxCell id="AB7soGHePCYamvRZRI3P-16" value="" style="endArrow=none;html=1;rounded=0;entryX=0;entryY=0.5;entryDx=0;entryDy=0;exitX=1;exitY=1;exitDx=0;exitDy=0;" parent="1" source="Wp1VHhU4FTjO8Ii-gMhq-35" target="AB7soGHePCYamvRZRI3P-5" edge="1">
          <mxGeometry width="50" height="50" relative="1" as="geometry">
            <mxPoint x="620" y="1160" as="sourcePoint" />
            <mxPoint x="670" y="1110" as="targetPoint" />
          </mxGeometry>
        </mxCell>
        <mxCell id="AB7soGHePCYamvRZRI3P-28" value="EXCUSES" style="rhombus;whiteSpace=wrap;html=1;" parent="1" vertex="1">
          <mxGeometry x="280" y="1370" width="100" height="70" as="geometry" />
        </mxCell>
        <mxCell id="AB7soGHePCYamvRZRI3P-29" value="" style="endArrow=none;html=1;rounded=0;entryX=0;entryY=0.5;entryDx=0;entryDy=0;exitX=0.5;exitY=0;exitDx=0;exitDy=0;" parent="1" source="AB7soGHePCYamvRZRI3P-28" target="Wp1VHhU4FTjO8Ii-gMhq-35" edge="1">
          <mxGeometry width="50" height="50" relative="1" as="geometry">
            <mxPoint x="360" y="1400" as="sourcePoint" />
            <mxPoint x="410" y="1350" as="targetPoint" />
            <Array as="points">
              <mxPoint x="330" y="1150" />
            </Array>
          </mxGeometry>
        </mxCell>
        <mxCell id="AB7soGHePCYamvRZRI3P-30" value="MEDICAL" style="rounded=0;whiteSpace=wrap;html=1;" parent="1" vertex="1">
          <mxGeometry x="275" y="1490" width="110" height="50" as="geometry" />
        </mxCell>
        <mxCell id="AB7soGHePCYamvRZRI3P-31" value="" style="endArrow=none;html=1;rounded=0;entryX=0.5;entryY=1;entryDx=0;entryDy=0;exitX=0.5;exitY=0;exitDx=0;exitDy=0;" parent="1" source="AB7soGHePCYamvRZRI3P-30" target="AB7soGHePCYamvRZRI3P-28" edge="1">
          <mxGeometry width="50" height="50" relative="1" as="geometry">
            <mxPoint x="360" y="1630" as="sourcePoint" />
            <mxPoint x="410" y="1580" as="targetPoint" />
          </mxGeometry>
        </mxCell>
        <mxCell id="AB7soGHePCYamvRZRI3P-32" value="&lt;u&gt;Ref_no&lt;/u&gt;" style="ellipse;whiteSpace=wrap;html=1;" parent="1" vertex="1">
          <mxGeometry x="480" y="1510" width="90" height="40" as="geometry" />
        </mxCell>
        <mxCell id="AB7soGHePCYamvRZRI3P-33" value="Period" style="ellipse;whiteSpace=wrap;html=1;" parent="1" vertex="1">
          <mxGeometry x="460" y="1580" width="80" height="30" as="geometry" />
        </mxCell>
        <mxCell id="AB7soGHePCYamvRZRI3P-34" value="Status" style="ellipse;whiteSpace=wrap;html=1;" parent="1" vertex="1">
          <mxGeometry x="400" y="1620" width="80" height="30" as="geometry" />
        </mxCell>
        <mxCell id="AB7soGHePCYamvRZRI3P-35" value="Reason" style="ellipse;whiteSpace=wrap;html=1;" parent="1" vertex="1">
          <mxGeometry x="230" y="1610" width="80" height="40" as="geometry" />
        </mxCell>
        <mxCell id="AB7soGHePCYamvRZRI3P-36" value="" style="endArrow=none;html=1;rounded=0;exitX=1;exitY=0.5;exitDx=0;exitDy=0;entryX=0;entryY=0.5;entryDx=0;entryDy=0;" parent="1" source="AB7soGHePCYamvRZRI3P-30" target="AB7soGHePCYamvRZRI3P-32" edge="1">
          <mxGeometry width="50" height="50" relative="1" as="geometry">
            <mxPoint x="800" y="1340" as="sourcePoint" />
            <mxPoint x="850" y="1290" as="targetPoint" />
          </mxGeometry>
        </mxCell>
        <mxCell id="AB7soGHePCYamvRZRI3P-37" value="" style="endArrow=none;html=1;rounded=0;exitX=1;exitY=0.5;exitDx=0;exitDy=0;entryX=0;entryY=0;entryDx=0;entryDy=0;" parent="1" source="AB7soGHePCYamvRZRI3P-30" target="AB7soGHePCYamvRZRI3P-33" edge="1">
          <mxGeometry width="50" height="50" relative="1" as="geometry">
            <mxPoint x="800" y="1340" as="sourcePoint" />
            <mxPoint x="850" y="1290" as="targetPoint" />
          </mxGeometry>
        </mxCell>
        <mxCell id="AB7soGHePCYamvRZRI3P-38" value="" style="endArrow=none;html=1;rounded=0;exitX=1;exitY=0.5;exitDx=0;exitDy=0;entryX=0.316;entryY=-0.024;entryDx=0;entryDy=0;entryPerimeter=0;" parent="1" source="AB7soGHePCYamvRZRI3P-30" target="AB7soGHePCYamvRZRI3P-34" edge="1">
          <mxGeometry width="50" height="50" relative="1" as="geometry">
            <mxPoint x="800" y="1340" as="sourcePoint" />
            <mxPoint x="850" y="1290" as="targetPoint" />
          </mxGeometry>
        </mxCell>
        <mxCell id="AB7soGHePCYamvRZRI3P-39" value="" style="endArrow=none;html=1;rounded=0;exitX=0.5;exitY=0;exitDx=0;exitDy=0;entryX=0.5;entryY=1;entryDx=0;entryDy=0;" parent="1" source="AB7soGHePCYamvRZRI3P-35" target="AB7soGHePCYamvRZRI3P-30" edge="1">
          <mxGeometry width="50" height="50" relative="1" as="geometry">
            <mxPoint x="800" y="1340" as="sourcePoint" />
            <mxPoint x="850" y="1290" as="targetPoint" />
          </mxGeometry>
        </mxCell>
        <mxCell id="AB7soGHePCYamvRZRI3P-40" value="SUBMIT" style="rhombus;whiteSpace=wrap;html=1;" parent="1" vertex="1">
          <mxGeometry x="740" y="1410" width="120" height="80" as="geometry" />
        </mxCell>
        <mxCell id="AB7soGHePCYamvRZRI3P-41" value="" style="endArrow=none;html=1;rounded=0;exitX=0.75;exitY=0;exitDx=0;exitDy=0;entryX=0;entryY=0.5;entryDx=0;entryDy=0;" parent="1" source="AB7soGHePCYamvRZRI3P-30" target="AB7soGHePCYamvRZRI3P-40" edge="1">
          <mxGeometry width="50" height="50" relative="1" as="geometry">
            <mxPoint x="800" y="1340" as="sourcePoint" />
            <mxPoint x="850" y="1290" as="targetPoint" />
            <Array as="points">
              <mxPoint x="358" y="1450" />
            </Array>
          </mxGeometry>
        </mxCell>
        <mxCell id="AB7soGHePCYamvRZRI3P-42" value="" style="endArrow=none;html=1;rounded=0;exitX=1;exitY=0.5;exitDx=0;exitDy=0;entryX=0.5;entryY=1;entryDx=0;entryDy=0;" parent="1" source="AB7soGHePCYamvRZRI3P-40" target="469mjGibJvNOkohn6Mcn-29" edge="1">
          <mxGeometry width="50" height="50" relative="1" as="geometry">
            <mxPoint x="800" y="1340" as="sourcePoint" />
            <mxPoint x="1410" y="1180" as="targetPoint" />
            <Array as="points">
              <mxPoint x="1500" y="1450" />
              <mxPoint x="1500" y="850" />
            </Array>
          </mxGeometry>
        </mxCell>
        <mxCell id="AB7soGHePCYamvRZRI3P-43" value="Status" style="ellipse;whiteSpace=wrap;html=1;" parent="1" vertex="1">
          <mxGeometry x="1580" y="630" width="80" height="40" as="geometry" />
        </mxCell>
        <mxCell id="AB7soGHePCYamvRZRI3P-44" value="" style="endArrow=none;html=1;rounded=0;entryX=0;entryY=0.5;entryDx=0;entryDy=0;exitX=1;exitY=0;exitDx=0;exitDy=0;" parent="1" source="469mjGibJvNOkohn6Mcn-29" target="AB7soGHePCYamvRZRI3P-43" edge="1">
          <mxGeometry width="50" height="50" relative="1" as="geometry">
            <mxPoint x="1220" y="780" as="sourcePoint" />
            <mxPoint x="1270" y="730" as="targetPoint" />
          </mxGeometry>
        </mxCell>
        <mxCell id="AB7soGHePCYamvRZRI3P-45" value="EXCUSES" style="rhombus;whiteSpace=wrap;html=1;" parent="1" vertex="1">
          <mxGeometry x="310" y="1890" width="100" height="60" as="geometry" />
        </mxCell>
        <mxCell id="AB7soGHePCYamvRZRI3P-46" value="" style="endArrow=none;html=1;rounded=0;exitX=0.75;exitY=1;exitDx=0;exitDy=0;" parent="1" source="AB7soGHePCYamvRZRI3P-30" target="AB7soGHePCYamvRZRI3P-45" edge="1">
          <mxGeometry width="50" height="50" relative="1" as="geometry">
            <mxPoint x="590" y="1440" as="sourcePoint" />
            <mxPoint x="640" y="1390" as="targetPoint" />
          </mxGeometry>
        </mxCell>
        <mxCell id="AB7soGHePCYamvRZRI3P-47" value="ATTENDENCE" style="rounded=0;whiteSpace=wrap;html=1;" parent="1" vertex="1">
          <mxGeometry x="650" y="1890" width="120" height="60" as="geometry" />
        </mxCell>
        <mxCell id="AB7soGHePCYamvRZRI3P-48" value="" style="endArrow=none;html=1;rounded=0;" parent="1" source="AB7soGHePCYamvRZRI3P-45" target="AB7soGHePCYamvRZRI3P-47" edge="1">
          <mxGeometry width="50" height="50" relative="1" as="geometry">
            <mxPoint x="590" y="1780" as="sourcePoint" />
            <mxPoint x="640" y="1730" as="targetPoint" />
          </mxGeometry>
        </mxCell>
        <mxCell id="AB7soGHePCYamvRZRI3P-49" value="Week_no" style="ellipse;whiteSpace=wrap;html=1;" parent="1" vertex="1">
          <mxGeometry x="790" y="1820" width="80" height="30" as="geometry" />
        </mxCell>
        <mxCell id="AB7soGHePCYamvRZRI3P-50" value="&lt;u&gt;Attendence_id&lt;/u&gt;" style="ellipse;whiteSpace=wrap;html=1;" parent="1" vertex="1">
          <mxGeometry x="820" y="1870" width="120" height="40" as="geometry" />
        </mxCell>
        <mxCell id="AB7soGHePCYamvRZRI3P-51" value="Status" style="ellipse;whiteSpace=wrap;html=1;" parent="1" vertex="1">
          <mxGeometry x="800" y="1920" width="90" height="40" as="geometry" />
        </mxCell>
        <mxCell id="AB7soGHePCYamvRZRI3P-52" value="" style="endArrow=none;html=1;rounded=0;entryX=0.359;entryY=1.024;entryDx=0;entryDy=0;entryPerimeter=0;exitX=1;exitY=0;exitDx=0;exitDy=0;" parent="1" source="AB7soGHePCYamvRZRI3P-47" target="AB7soGHePCYamvRZRI3P-49" edge="1">
          <mxGeometry width="50" height="50" relative="1" as="geometry">
            <mxPoint x="720" y="1940" as="sourcePoint" />
            <mxPoint x="770" y="1890" as="targetPoint" />
          </mxGeometry>
        </mxCell>
        <mxCell id="AB7soGHePCYamvRZRI3P-53" value="" style="endArrow=none;html=1;rounded=0;entryX=0;entryY=0.5;entryDx=0;entryDy=0;exitX=1;exitY=0;exitDx=0;exitDy=0;" parent="1" source="AB7soGHePCYamvRZRI3P-47" target="AB7soGHePCYamvRZRI3P-50" edge="1">
          <mxGeometry width="50" height="50" relative="1" as="geometry">
            <mxPoint x="720" y="1940" as="sourcePoint" />
            <mxPoint x="770" y="1890" as="targetPoint" />
          </mxGeometry>
        </mxCell>
        <mxCell id="AB7soGHePCYamvRZRI3P-54" value="" style="endArrow=none;html=1;rounded=0;exitX=0;exitY=0.5;exitDx=0;exitDy=0;entryX=1;entryY=0;entryDx=0;entryDy=0;" parent="1" source="AB7soGHePCYamvRZRI3P-51" target="AB7soGHePCYamvRZRI3P-47" edge="1">
          <mxGeometry width="50" height="50" relative="1" as="geometry">
            <mxPoint x="720" y="1940" as="sourcePoint" />
            <mxPoint x="790" y="1960" as="targetPoint" />
          </mxGeometry>
        </mxCell>
        <mxCell id="AB7soGHePCYamvRZRI3P-55" value="HAS" style="rhombus;whiteSpace=wrap;html=1;" parent="1" vertex="1">
          <mxGeometry x="675" y="2050" width="70" height="40" as="geometry" />
        </mxCell>
        <mxCell id="AB7soGHePCYamvRZRI3P-56" value="" style="endArrow=none;html=1;rounded=0;exitX=0.5;exitY=1;exitDx=0;exitDy=0;entryX=0.5;entryY=0;entryDx=0;entryDy=0;" parent="1" source="AB7soGHePCYamvRZRI3P-47" target="AB7soGHePCYamvRZRI3P-55" edge="1">
          <mxGeometry width="50" height="50" relative="1" as="geometry">
            <mxPoint x="720" y="1940" as="sourcePoint" />
            <mxPoint x="770" y="1890" as="targetPoint" />
          </mxGeometry>
        </mxCell>
        <mxCell id="AB7soGHePCYamvRZRI3P-57" value="COURSEUNIT" style="rounded=0;whiteSpace=wrap;html=1;" parent="1" vertex="1">
          <mxGeometry x="870" y="2050" width="110" height="40" as="geometry" />
        </mxCell>
        <mxCell id="AB7soGHePCYamvRZRI3P-58" value="" style="endArrow=none;html=1;rounded=0;exitX=1;exitY=0.5;exitDx=0;exitDy=0;entryX=0;entryY=0.5;entryDx=0;entryDy=0;" parent="1" source="AB7soGHePCYamvRZRI3P-55" target="AB7soGHePCYamvRZRI3P-57" edge="1">
          <mxGeometry width="50" height="50" relative="1" as="geometry">
            <mxPoint x="720" y="1940" as="sourcePoint" />
            <mxPoint x="770" y="1890" as="targetPoint" />
          </mxGeometry>
        </mxCell>
        <mxCell id="AB7soGHePCYamvRZRI3P-59" value="Type" style="ellipse;whiteSpace=wrap;html=1;" parent="1" vertex="1">
          <mxGeometry x="1090" y="2040" width="70" height="30" as="geometry" />
        </mxCell>
        <mxCell id="AB7soGHePCYamvRZRI3P-60" value="&lt;u&gt;Course_code&lt;/u&gt;" style="ellipse;whiteSpace=wrap;html=1;" parent="1" vertex="1">
          <mxGeometry x="1075" y="2090" width="100" height="30" as="geometry" />
        </mxCell>
        <mxCell id="AB7soGHePCYamvRZRI3P-61" value="Title" style="ellipse;whiteSpace=wrap;html=1;" parent="1" vertex="1">
          <mxGeometry x="1075" y="2130" width="70" height="30" as="geometry" />
        </mxCell>
        <mxCell id="AB7soGHePCYamvRZRI3P-62" value="Credits" style="ellipse;whiteSpace=wrap;html=1;" parent="1" vertex="1">
          <mxGeometry x="1050" y="2160" width="70" height="30" as="geometry" />
        </mxCell>
        <mxCell id="AB7soGHePCYamvRZRI3P-63" value="" style="endArrow=none;html=1;rounded=0;entryX=0;entryY=0.5;entryDx=0;entryDy=0;exitX=1;exitY=0.5;exitDx=0;exitDy=0;" parent="1" source="AB7soGHePCYamvRZRI3P-57" target="AB7soGHePCYamvRZRI3P-59" edge="1">
          <mxGeometry width="50" height="50" relative="1" as="geometry">
            <mxPoint x="740" y="2140" as="sourcePoint" />
            <mxPoint x="790" y="2090" as="targetPoint" />
          </mxGeometry>
        </mxCell>
        <mxCell id="AB7soGHePCYamvRZRI3P-64" value="" style="endArrow=none;html=1;rounded=0;exitX=0;exitY=0.5;exitDx=0;exitDy=0;entryX=1;entryY=0.5;entryDx=0;entryDy=0;" parent="1" source="AB7soGHePCYamvRZRI3P-60" target="AB7soGHePCYamvRZRI3P-57" edge="1">
          <mxGeometry width="50" height="50" relative="1" as="geometry">
            <mxPoint x="740" y="2140" as="sourcePoint" />
            <mxPoint x="790" y="2090" as="targetPoint" />
          </mxGeometry>
        </mxCell>
        <mxCell id="AB7soGHePCYamvRZRI3P-65" value="" style="endArrow=none;html=1;rounded=0;exitX=0;exitY=0.5;exitDx=0;exitDy=0;entryX=1;entryY=0.5;entryDx=0;entryDy=0;" parent="1" source="AB7soGHePCYamvRZRI3P-61" target="AB7soGHePCYamvRZRI3P-57" edge="1">
          <mxGeometry width="50" height="50" relative="1" as="geometry">
            <mxPoint x="740" y="2140" as="sourcePoint" />
            <mxPoint x="790" y="2090" as="targetPoint" />
          </mxGeometry>
        </mxCell>
        <mxCell id="AB7soGHePCYamvRZRI3P-66" value="" style="endArrow=none;html=1;rounded=0;exitX=0;exitY=0.5;exitDx=0;exitDy=0;entryX=1;entryY=0.5;entryDx=0;entryDy=0;" parent="1" source="AB7soGHePCYamvRZRI3P-62" target="AB7soGHePCYamvRZRI3P-57" edge="1">
          <mxGeometry width="50" height="50" relative="1" as="geometry">
            <mxPoint x="740" y="2140" as="sourcePoint" />
            <mxPoint x="790" y="2090" as="targetPoint" />
          </mxGeometry>
        </mxCell>
        <mxCell id="AB7soGHePCYamvRZRI3P-67" value="HAS" style="rhombus;whiteSpace=wrap;html=1;" parent="1" vertex="1">
          <mxGeometry x="230" y="2110" width="80" height="50" as="geometry" />
        </mxCell>
        <mxCell id="AB7soGHePCYamvRZRI3P-68" value="" style="endArrow=none;html=1;rounded=0;entryX=0;entryY=0.25;entryDx=0;entryDy=0;exitX=0;exitY=0.5;exitDx=0;exitDy=0;" parent="1" source="AB7soGHePCYamvRZRI3P-67" target="Wp1VHhU4FTjO8Ii-gMhq-35" edge="1">
          <mxGeometry width="50" height="50" relative="1" as="geometry">
            <mxPoint x="520" y="1530" as="sourcePoint" />
            <mxPoint x="570" y="1480" as="targetPoint" />
            <Array as="points">
              <mxPoint x="160" y="2135" />
              <mxPoint x="160" y="1135" />
            </Array>
          </mxGeometry>
        </mxCell>
        <mxCell id="AB7soGHePCYamvRZRI3P-69" value="" style="endArrow=none;html=1;rounded=0;exitX=1;exitY=0.5;exitDx=0;exitDy=0;entryX=0.5;entryY=1;entryDx=0;entryDy=0;" parent="1" source="AB7soGHePCYamvRZRI3P-67" target="AB7soGHePCYamvRZRI3P-57" edge="1">
          <mxGeometry width="50" height="50" relative="1" as="geometry">
            <mxPoint x="670" y="2150" as="sourcePoint" />
            <mxPoint x="720" y="2100" as="targetPoint" />
            <Array as="points">
              <mxPoint x="925" y="2140" />
            </Array>
          </mxGeometry>
        </mxCell>
        <mxCell id="mgSoafnXSVISCSBCxPJr-1" value="" style="shape=requiredInterface;html=1;verticalLabelPosition=bottom;sketch=0;rotation=135;" parent="1" vertex="1">
          <mxGeometry x="1010" y="505" width="10" height="20" as="geometry" />
        </mxCell>
        <mxCell id="mgSoafnXSVISCSBCxPJr-5" value="" style="endArrow=none;html=1;rounded=0;exitX=0;exitY=0.5;exitDx=0;exitDy=0;entryX=0;entryY=0.5;entryDx=0;entryDy=0;entryPerimeter=0;" parent="1" source="469mjGibJvNOkohn6Mcn-25" target="mgSoafnXSVISCSBCxPJr-2" edge="1">
          <mxGeometry width="50" height="50" relative="1" as="geometry">
            <mxPoint x="1210" y="330" as="sourcePoint" />
            <mxPoint x="240" y="620" as="targetPoint" />
          </mxGeometry>
        </mxCell>
        <mxCell id="mgSoafnXSVISCSBCxPJr-2" value="" style="shape=requiredInterface;html=1;verticalLabelPosition=bottom;sketch=0;rotation=-195;" parent="1" vertex="1">
          <mxGeometry x="753.89" y="450" width="12.21" height="23.97" as="geometry" />
        </mxCell>
        <mxCell id="mgSoafnXSVISCSBCxPJr-7" value="" style="endArrow=none;html=1;rounded=0;entryX=1;entryY=0.5;entryDx=0;entryDy=0;exitX=0.25;exitY=0;exitDx=0;exitDy=0;entryPerimeter=0;" parent="1" source="469mjGibJvNOkohn6Mcn-29" target="mgSoafnXSVISCSBCxPJr-6" edge="1">
          <mxGeometry width="50" height="50" relative="1" as="geometry">
            <mxPoint x="1400" y="620" as="sourcePoint" />
            <mxPoint x="1250" y="370" as="targetPoint" />
          </mxGeometry>
        </mxCell>
        <mxCell id="mgSoafnXSVISCSBCxPJr-6" value="" style="shape=requiredInterface;html=1;verticalLabelPosition=bottom;sketch=0;rotation=60;" parent="1" vertex="1">
          <mxGeometry x="1320" y="480" width="10" height="20" as="geometry" />
        </mxCell>
        <mxCell id="mgSoafnXSVISCSBCxPJr-8" value="" style="shape=requiredInterface;html=1;verticalLabelPosition=bottom;sketch=0;rotation=30;" parent="1" vertex="1">
          <mxGeometry x="1580" y="473.97" width="10" height="20" as="geometry" />
        </mxCell>
        <mxCell id="mgSoafnXSVISCSBCxPJr-10" value="" style="endArrow=none;html=1;rounded=0;entryX=1;entryY=0.5;entryDx=0;entryDy=0;exitX=0;exitY=0;exitDx=0;exitDy=0;" parent="1" source="469mjGibJvNOkohn6Mcn-31" target="mgSoafnXSVISCSBCxPJr-9" edge="1">
          <mxGeometry width="50" height="50" relative="1" as="geometry">
            <mxPoint x="2400" y="590" as="sourcePoint" />
            <mxPoint x="1290" y="330" as="targetPoint" />
          </mxGeometry>
        </mxCell>
        <mxCell id="mgSoafnXSVISCSBCxPJr-9" value="" style="shape=requiredInterface;html=1;verticalLabelPosition=bottom;sketch=0;rotation=20;" parent="1" vertex="1">
          <mxGeometry x="1740" y="430" width="10" height="20" as="geometry" />
        </mxCell>
        <mxCell id="mgSoafnXSVISCSBCxPJr-11" value="HAS" style="rhombus;whiteSpace=wrap;html=1;" parent="1" vertex="1">
          <mxGeometry x="1150" y="1560" width="80" height="50" as="geometry" />
        </mxCell>
        <mxCell id="mgSoafnXSVISCSBCxPJr-12" value="" style="endArrow=none;html=1;rounded=0;exitX=0.5;exitY=0;exitDx=0;exitDy=0;entryX=0;entryY=0.5;entryDx=0;entryDy=0;" parent="1" source="AB7soGHePCYamvRZRI3P-47" target="mgSoafnXSVISCSBCxPJr-11" edge="1">
          <mxGeometry width="50" height="50" relative="1" as="geometry">
            <mxPoint x="1110" y="1670" as="sourcePoint" />
            <mxPoint x="1160" y="1620" as="targetPoint" />
            <Array as="points">
              <mxPoint x="710" y="1585" />
            </Array>
          </mxGeometry>
        </mxCell>
        <mxCell id="mgSoafnXSVISCSBCxPJr-13" value="" style="endArrow=none;html=1;rounded=0;entryX=0.5;entryY=1;entryDx=0;entryDy=0;exitX=1;exitY=0.5;exitDx=0;exitDy=0;" parent="1" source="mgSoafnXSVISCSBCxPJr-11" target="469mjGibJvNOkohn6Mcn-29" edge="1">
          <mxGeometry width="50" height="50" relative="1" as="geometry">
            <mxPoint x="1560" y="850" as="sourcePoint" />
            <mxPoint x="1260" y="1210" as="targetPoint" />
            <Array as="points">
              <mxPoint x="1550" y="1585" />
              <mxPoint x="1540" y="830" />
            </Array>
          </mxGeometry>
        </mxCell>
        <mxCell id="mgSoafnXSVISCSBCxPJr-14" value="TEACHES" style="rhombus;whiteSpace=wrap;html=1;" parent="1" vertex="1">
          <mxGeometry x="666.1" y="2240" width="100" height="60" as="geometry" />
        </mxCell>
        <mxCell id="mgSoafnXSVISCSBCxPJr-15" value="" style="endArrow=none;html=1;rounded=0;exitX=0.75;exitY=1;exitDx=0;exitDy=0;entryX=1;entryY=0.5;entryDx=0;entryDy=0;" parent="1" source="AB7soGHePCYamvRZRI3P-57" target="mgSoafnXSVISCSBCxPJr-14" edge="1">
          <mxGeometry width="50" height="50" relative="1" as="geometry">
            <mxPoint x="930" y="2110" as="sourcePoint" />
            <mxPoint x="950" y="2240" as="targetPoint" />
            <Array as="points">
              <mxPoint x="953" y="2270" />
            </Array>
          </mxGeometry>
        </mxCell>
        <mxCell id="mgSoafnXSVISCSBCxPJr-16" value="No_of_Hours" style="ellipse;whiteSpace=wrap;html=1;" parent="1" vertex="1">
          <mxGeometry x="740" y="2160" width="113.9" height="35" as="geometry" />
        </mxCell>
        <mxCell id="mgSoafnXSVISCSBCxPJr-17" value="" style="endArrow=none;html=1;rounded=0;exitX=0;exitY=0.5;exitDx=0;exitDy=0;entryX=0.5;entryY=0;entryDx=0;entryDy=0;" parent="1" source="mgSoafnXSVISCSBCxPJr-16" target="mgSoafnXSVISCSBCxPJr-14" edge="1">
          <mxGeometry width="50" height="50" relative="1" as="geometry">
            <mxPoint x="980" y="1690" as="sourcePoint" />
            <mxPoint x="1030" y="1640" as="targetPoint" />
          </mxGeometry>
        </mxCell>
        <mxCell id="mgSoafnXSVISCSBCxPJr-18" value="" style="endArrow=none;html=1;rounded=0;exitX=0;exitY=0.5;exitDx=0;exitDy=0;entryX=0.25;entryY=1;entryDx=0;entryDy=0;" parent="1" source="mgSoafnXSVISCSBCxPJr-14" target="469mjGibJvNOkohn6Mcn-27" edge="1">
          <mxGeometry width="50" height="50" relative="1" as="geometry">
            <mxPoint x="840" y="2130" as="sourcePoint" />
            <mxPoint x="890" y="2080" as="targetPoint" />
            <Array as="points">
              <mxPoint x="140" y="2270" />
            </Array>
          </mxGeometry>
        </mxCell>
        <mxCell id="mgSoafnXSVISCSBCxPJr-20" value="STUDY" style="rhombus;whiteSpace=wrap;html=1;" parent="1" vertex="1">
          <mxGeometry x="1250" y="1890" width="80" height="50" as="geometry" />
        </mxCell>
        <mxCell id="mgSoafnXSVISCSBCxPJr-21" value="" style="endArrow=none;html=1;rounded=0;exitX=0.5;exitY=0;exitDx=0;exitDy=0;entryX=0;entryY=0.5;entryDx=0;entryDy=0;" parent="1" source="AB7soGHePCYamvRZRI3P-57" target="mgSoafnXSVISCSBCxPJr-20" edge="1">
          <mxGeometry width="50" height="50" relative="1" as="geometry">
            <mxPoint x="980" y="2070" as="sourcePoint" />
            <mxPoint x="1030" y="2020" as="targetPoint" />
            <Array as="points">
              <mxPoint x="925" y="1920" />
            </Array>
          </mxGeometry>
        </mxCell>
        <mxCell id="mgSoafnXSVISCSBCxPJr-22" value="" style="endArrow=none;html=1;rounded=0;exitX=1;exitY=0.5;exitDx=0;exitDy=0;entryX=0.5;entryY=1;entryDx=0;entryDy=0;" parent="1" source="mgSoafnXSVISCSBCxPJr-20" target="469mjGibJvNOkohn6Mcn-29" edge="1">
          <mxGeometry width="50" height="50" relative="1" as="geometry">
            <mxPoint x="1300" y="1860" as="sourcePoint" />
            <mxPoint x="1350" y="1810" as="targetPoint" />
            <Array as="points">
              <mxPoint x="1600" y="1920" />
              <mxPoint x="1570" y="810" />
            </Array>
          </mxGeometry>
        </mxCell>
        <mxCell id="mgSoafnXSVISCSBCxPJr-24" value="DEPARTMENT" style="rounded=0;whiteSpace=wrap;html=1;" parent="1" vertex="1">
          <mxGeometry x="2200" y="1950" width="120" height="60" as="geometry" />
        </mxCell>
        <mxCell id="mgSoafnXSVISCSBCxPJr-27" value="Contact_email" style="ellipse;whiteSpace=wrap;html=1;" parent="1" vertex="1">
          <mxGeometry x="2400" y="1910" width="120" height="40" as="geometry" />
        </mxCell>
        <mxCell id="mgSoafnXSVISCSBCxPJr-28" value="&lt;u&gt;Dep_id&lt;/u&gt;" style="ellipse;whiteSpace=wrap;html=1;" parent="1" vertex="1">
          <mxGeometry x="2390" y="2020" width="120" height="40" as="geometry" />
        </mxCell>
        <mxCell id="mgSoafnXSVISCSBCxPJr-29" value="Dep_name" style="ellipse;whiteSpace=wrap;html=1;" parent="1" vertex="1">
          <mxGeometry x="2380" y="2130" width="120" height="40" as="geometry" />
        </mxCell>
        <mxCell id="mgSoafnXSVISCSBCxPJr-31" value="" style="endArrow=none;html=1;rounded=0;entryX=0;entryY=0.5;entryDx=0;entryDy=0;exitX=1;exitY=0.25;exitDx=0;exitDy=0;" parent="1" source="mgSoafnXSVISCSBCxPJr-24" target="mgSoafnXSVISCSBCxPJr-27" edge="1">
          <mxGeometry width="50" height="50" relative="1" as="geometry">
            <mxPoint x="2080" y="1940" as="sourcePoint" />
            <mxPoint x="2130" y="1890" as="targetPoint" />
          </mxGeometry>
        </mxCell>
        <mxCell id="mgSoafnXSVISCSBCxPJr-32" value="" style="endArrow=none;html=1;rounded=0;entryX=0;entryY=0.5;entryDx=0;entryDy=0;exitX=1;exitY=0.25;exitDx=0;exitDy=0;" parent="1" source="mgSoafnXSVISCSBCxPJr-24" target="mgSoafnXSVISCSBCxPJr-28" edge="1">
          <mxGeometry width="50" height="50" relative="1" as="geometry">
            <mxPoint x="2080" y="1940" as="sourcePoint" />
            <mxPoint x="2130" y="1890" as="targetPoint" />
          </mxGeometry>
        </mxCell>
        <mxCell id="mgSoafnXSVISCSBCxPJr-33" value="" style="endArrow=none;html=1;rounded=0;entryX=0;entryY=0.5;entryDx=0;entryDy=0;exitX=1;exitY=0.25;exitDx=0;exitDy=0;" parent="1" source="mgSoafnXSVISCSBCxPJr-24" target="mgSoafnXSVISCSBCxPJr-29" edge="1">
          <mxGeometry width="50" height="50" relative="1" as="geometry">
            <mxPoint x="2080" y="1940" as="sourcePoint" />
            <mxPoint x="2130" y="1890" as="targetPoint" />
          </mxGeometry>
        </mxCell>
        <mxCell id="mgSoafnXSVISCSBCxPJr-34" value="CONDUCT" style="rhombus;whiteSpace=wrap;html=1;" parent="1" vertex="1">
          <mxGeometry x="1530" y="1970" width="100" height="50" as="geometry" />
        </mxCell>
        <mxCell id="mgSoafnXSVISCSBCxPJr-35" value="" style="endArrow=none;html=1;rounded=0;exitX=0.818;exitY=0;exitDx=0;exitDy=0;exitPerimeter=0;entryX=0;entryY=0.5;entryDx=0;entryDy=0;" parent="1" source="AB7soGHePCYamvRZRI3P-57" target="mgSoafnXSVISCSBCxPJr-34" edge="1">
          <mxGeometry width="50" height="50" relative="1" as="geometry">
            <mxPoint x="1230" y="1870" as="sourcePoint" />
            <mxPoint x="1280" y="1820" as="targetPoint" />
            <Array as="points">
              <mxPoint x="960" y="1995" />
            </Array>
          </mxGeometry>
        </mxCell>
        <mxCell id="mgSoafnXSVISCSBCxPJr-36" value="" style="endArrow=none;html=1;rounded=0;exitX=1;exitY=0.5;exitDx=0;exitDy=0;entryX=0;entryY=0.75;entryDx=0;entryDy=0;" parent="1" source="mgSoafnXSVISCSBCxPJr-34" target="mgSoafnXSVISCSBCxPJr-24" edge="1">
          <mxGeometry width="50" height="50" relative="1" as="geometry">
            <mxPoint x="1860" y="1870" as="sourcePoint" />
            <mxPoint x="1910" y="1820" as="targetPoint" />
            <Array as="points">
              <mxPoint x="1700" y="1995" />
            </Array>
          </mxGeometry>
        </mxCell>
        <mxCell id="mgSoafnXSVISCSBCxPJr-37" style="edgeStyle=orthogonalEdgeStyle;rounded=0;orthogonalLoop=1;jettySize=auto;html=1;exitX=0.5;exitY=1;exitDx=0;exitDy=0;" parent="1" source="mgSoafnXSVISCSBCxPJr-27" target="mgSoafnXSVISCSBCxPJr-27" edge="1">
          <mxGeometry relative="1" as="geometry" />
        </mxCell>
        <mxCell id="mgSoafnXSVISCSBCxPJr-38" value="BELONG" style="rhombus;whiteSpace=wrap;html=1;" parent="1" vertex="1">
          <mxGeometry x="1215" y="2330" width="90" height="60" as="geometry" />
        </mxCell>
        <mxCell id="mgSoafnXSVISCSBCxPJr-39" value="" style="endArrow=none;html=1;rounded=0;exitX=1;exitY=0.5;exitDx=0;exitDy=0;entryX=0.5;entryY=1;entryDx=0;entryDy=0;" parent="1" source="mgSoafnXSVISCSBCxPJr-38" target="mgSoafnXSVISCSBCxPJr-24" edge="1">
          <mxGeometry width="50" height="50" relative="1" as="geometry">
            <mxPoint x="1590" y="2090" as="sourcePoint" />
            <mxPoint x="1640" y="2040" as="targetPoint" />
            <Array as="points">
              <mxPoint x="2260" y="2360" />
            </Array>
          </mxGeometry>
        </mxCell>
        <mxCell id="mgSoafnXSVISCSBCxPJr-40" value="" style="endArrow=none;html=1;rounded=0;entryX=0;entryY=0.5;entryDx=0;entryDy=0;exitX=0;exitY=0.5;exitDx=0;exitDy=0;" parent="1" source="469mjGibJvNOkohn6Mcn-27" target="mgSoafnXSVISCSBCxPJr-38" edge="1">
          <mxGeometry width="50" height="50" relative="1" as="geometry">
            <mxPoint x="710" y="2090" as="sourcePoint" />
            <mxPoint x="760" y="2040" as="targetPoint" />
            <Array as="points">
              <mxPoint x="50" y="650" />
              <mxPoint x="50" y="2360" />
            </Array>
          </mxGeometry>
        </mxCell>
        <mxCell id="mgSoafnXSVISCSBCxPJr-41" value="BELONGSTO" style="rhombus;whiteSpace=wrap;html=1;" parent="1" vertex="1">
          <mxGeometry x="2170" y="1530" width="120" height="70" as="geometry" />
        </mxCell>
        <mxCell id="mgSoafnXSVISCSBCxPJr-42" value="" style="endArrow=none;html=1;rounded=0;entryX=0.5;entryY=1;entryDx=0;entryDy=0;exitX=0.25;exitY=0;exitDx=0;exitDy=0;" parent="1" source="mgSoafnXSVISCSBCxPJr-24" target="mgSoafnXSVISCSBCxPJr-41" edge="1">
          <mxGeometry width="50" height="50" relative="1" as="geometry">
            <mxPoint x="1880" y="1700" as="sourcePoint" />
            <mxPoint x="1930" y="1650" as="targetPoint" />
          </mxGeometry>
        </mxCell>
        <mxCell id="mgSoafnXSVISCSBCxPJr-43" value="" style="endArrow=none;html=1;rounded=0;entryX=0.5;entryY=0;entryDx=0;entryDy=0;exitX=0.5;exitY=1;exitDx=0;exitDy=0;" parent="1" source="469mjGibJvNOkohn6Mcn-29" target="mgSoafnXSVISCSBCxPJr-41" edge="1">
          <mxGeometry width="50" height="50" relative="1" as="geometry">
            <mxPoint x="1880" y="1700" as="sourcePoint" />
            <mxPoint x="1930" y="1650" as="targetPoint" />
            <Array as="points">
              <mxPoint x="1600" y="800" />
              <mxPoint x="1630" y="1470" />
              <mxPoint x="2230" y="1480" />
            </Array>
          </mxGeometry>
        </mxCell>
        <mxCell id="mgSoafnXSVISCSBCxPJr-44" value="DEPENDDENT" style="shape=rhombus;double=1;perimeter=rhombusPerimeter;whiteSpace=wrap;html=1;align=center;" parent="1" vertex="1">
          <mxGeometry x="1840" y="870" width="140" height="60" as="geometry" />
        </mxCell>
        <mxCell id="mgSoafnXSVISCSBCxPJr-45" value="GARDIAN" style="shape=ext;margin=3;double=1;whiteSpace=wrap;html=1;align=center;" parent="1" vertex="1">
          <mxGeometry x="2140" y="980" width="110" height="50" as="geometry" />
        </mxCell>
        <mxCell id="mgSoafnXSVISCSBCxPJr-46" value="" style="endArrow=none;html=1;rounded=0;entryX=0;entryY=0;entryDx=0;entryDy=0;exitX=1;exitY=0.5;exitDx=0;exitDy=0;" parent="1" source="mgSoafnXSVISCSBCxPJr-44" target="mgSoafnXSVISCSBCxPJr-45" edge="1">
          <mxGeometry width="50" height="50" relative="1" as="geometry">
            <mxPoint x="1870" y="920" as="sourcePoint" />
            <mxPoint x="1920" y="870" as="targetPoint" />
          </mxGeometry>
        </mxCell>
        <mxCell id="mgSoafnXSVISCSBCxPJr-47" value="" style="endArrow=none;html=1;rounded=0;exitX=0.5;exitY=1;exitDx=0;exitDy=0;entryX=0;entryY=0.5;entryDx=0;entryDy=0;" parent="1" source="469mjGibJvNOkohn6Mcn-29" target="mgSoafnXSVISCSBCxPJr-44" edge="1">
          <mxGeometry width="50" height="50" relative="1" as="geometry">
            <mxPoint x="1870" y="920" as="sourcePoint" />
            <mxPoint x="1920" y="870" as="targetPoint" />
          </mxGeometry>
        </mxCell>
        <mxCell id="mgSoafnXSVISCSBCxPJr-48" value="Occupation" style="ellipse;whiteSpace=wrap;html=1;" parent="1" vertex="1">
          <mxGeometry x="2290" y="1070" width="90" height="45" as="geometry" />
        </mxCell>
        <mxCell id="mgSoafnXSVISCSBCxPJr-49" value="Name" style="ellipse;whiteSpace=wrap;html=1;" parent="1" vertex="1">
          <mxGeometry x="2310" y="890" width="100" height="40" as="geometry" />
        </mxCell>
        <mxCell id="mgSoafnXSVISCSBCxPJr-50" value="Contact_no" style="ellipse;whiteSpace=wrap;html=1;" parent="1" vertex="1">
          <mxGeometry x="2330" y="945" width="100" height="40" as="geometry" />
        </mxCell>
        <mxCell id="mgSoafnXSVISCSBCxPJr-51" value="Relationship" style="ellipse;whiteSpace=wrap;html=1;" parent="1" vertex="1">
          <mxGeometry x="2325" y="1010" width="110" height="40" as="geometry" />
        </mxCell>
        <mxCell id="mgSoafnXSVISCSBCxPJr-52" value="" style="endArrow=none;html=1;rounded=0;exitX=1;exitY=0;exitDx=0;exitDy=0;entryX=0;entryY=0;entryDx=0;entryDy=0;" parent="1" source="mgSoafnXSVISCSBCxPJr-45" target="mgSoafnXSVISCSBCxPJr-48" edge="1">
          <mxGeometry width="50" height="50" relative="1" as="geometry">
            <mxPoint x="2250" y="970" as="sourcePoint" />
            <mxPoint x="2265" y="1110" as="targetPoint" />
          </mxGeometry>
        </mxCell>
        <mxCell id="mgSoafnXSVISCSBCxPJr-53" value="" style="endArrow=none;html=1;rounded=0;exitX=0;exitY=0.5;exitDx=0;exitDy=0;entryX=1;entryY=0;entryDx=0;entryDy=0;" parent="1" source="mgSoafnXSVISCSBCxPJr-49" target="mgSoafnXSVISCSBCxPJr-45" edge="1">
          <mxGeometry width="50" height="50" relative="1" as="geometry">
            <mxPoint x="1870" y="920" as="sourcePoint" />
            <mxPoint x="1920" y="870" as="targetPoint" />
          </mxGeometry>
        </mxCell>
        <mxCell id="mgSoafnXSVISCSBCxPJr-54" value="" style="endArrow=none;html=1;rounded=0;exitX=0;exitY=0.5;exitDx=0;exitDy=0;entryX=1;entryY=0;entryDx=0;entryDy=0;" parent="1" source="mgSoafnXSVISCSBCxPJr-50" target="mgSoafnXSVISCSBCxPJr-45" edge="1">
          <mxGeometry width="50" height="50" relative="1" as="geometry">
            <mxPoint x="1870" y="920" as="sourcePoint" />
            <mxPoint x="1920" y="870" as="targetPoint" />
          </mxGeometry>
        </mxCell>
        <mxCell id="mgSoafnXSVISCSBCxPJr-55" value="" style="endArrow=none;html=1;rounded=0;entryX=0;entryY=0;entryDx=0;entryDy=0;exitX=1;exitY=0;exitDx=0;exitDy=0;" parent="1" source="mgSoafnXSVISCSBCxPJr-45" target="mgSoafnXSVISCSBCxPJr-51" edge="1">
          <mxGeometry width="50" height="50" relative="1" as="geometry">
            <mxPoint x="1870" y="920" as="sourcePoint" />
            <mxPoint x="1920" y="870" as="targetPoint" />
          </mxGeometry>
        </mxCell>
        <mxCell id="mgSoafnXSVISCSBCxPJr-56" value="M" style="ellipse;whiteSpace=wrap;html=1;aspect=fixed;shadow=1;" parent="1" vertex="1">
          <mxGeometry x="610" y="1110" width="20" height="20" as="geometry" />
        </mxCell>
        <mxCell id="mgSoafnXSVISCSBCxPJr-59" value="1" style="ellipse;whiteSpace=wrap;html=1;aspect=fixed;" parent="1" vertex="1">
          <mxGeometry x="900" y="2095" width="20" height="20" as="geometry" />
        </mxCell>
        <mxCell id="mgSoafnXSVISCSBCxPJr-60" value="M" style="ellipse;whiteSpace=wrap;html=1;aspect=fixed;shadow=1;" parent="1" vertex="1">
          <mxGeometry x="610" y="1160" width="20" height="20" as="geometry" />
        </mxCell>
        <mxCell id="mgSoafnXSVISCSBCxPJr-61" value="1" style="ellipse;whiteSpace=wrap;html=1;aspect=fixed;" parent="1" vertex="1">
          <mxGeometry x="300" y="1460" width="20" height="20" as="geometry" />
        </mxCell>
        <mxCell id="mgSoafnXSVISCSBCxPJr-62" value="M" style="ellipse;whiteSpace=wrap;html=1;aspect=fixed;shadow=1;" parent="1" vertex="1">
          <mxGeometry x="365" y="1460" width="20" height="20" as="geometry" />
        </mxCell>
        <mxCell id="mgSoafnXSVISCSBCxPJr-63" value="1" style="ellipse;whiteSpace=wrap;html=1;aspect=fixed;" parent="1" vertex="1">
          <mxGeometry x="1470" y="830" width="20" height="20" as="geometry" />
        </mxCell>
        <mxCell id="mgSoafnXSVISCSBCxPJr-64" value="1" style="ellipse;whiteSpace=wrap;html=1;aspect=fixed;" parent="1" vertex="1">
          <mxGeometry x="330" y="1550" width="20" height="20" as="geometry" />
        </mxCell>
        <mxCell id="mgSoafnXSVISCSBCxPJr-67" value="M" style="ellipse;whiteSpace=wrap;html=1;aspect=fixed;shadow=1;" parent="1" vertex="1">
          <mxGeometry x="620" y="1890" width="20" height="20" as="geometry" />
        </mxCell>
        <mxCell id="mgSoafnXSVISCSBCxPJr-68" value="M" style="ellipse;whiteSpace=wrap;html=1;aspect=fixed;shadow=1;" parent="1" vertex="1">
          <mxGeometry x="680" y="1860" width="20" height="20" as="geometry" />
        </mxCell>
        <mxCell id="mgSoafnXSVISCSBCxPJr-69" value="M" style="ellipse;whiteSpace=wrap;html=1;aspect=fixed;shadow=1;" parent="1" vertex="1">
          <mxGeometry x="680" y="1960" width="20" height="20" as="geometry" />
        </mxCell>
        <mxCell id="mgSoafnXSVISCSBCxPJr-70" value="1" style="ellipse;whiteSpace=wrap;html=1;aspect=fixed;" parent="1" vertex="1">
          <mxGeometry x="1515" y="840" width="20" height="20" as="geometry" />
        </mxCell>
        <mxCell id="mgSoafnXSVISCSBCxPJr-72" value="1" style="ellipse;whiteSpace=wrap;html=1;aspect=fixed;" parent="1" vertex="1">
          <mxGeometry x="840" y="2045" width="20" height="20" as="geometry" />
        </mxCell>
        <mxCell id="mgSoafnXSVISCSBCxPJr-73" value="N" style="ellipse;whiteSpace=wrap;html=1;" parent="1" vertex="1">
          <mxGeometry x="960" y="2100" width="20" height="20" as="geometry" />
        </mxCell>
        <mxCell id="mgSoafnXSVISCSBCxPJr-74" value="M" style="ellipse;whiteSpace=wrap;html=1;aspect=fixed;shadow=1;" parent="1" vertex="1">
          <mxGeometry x="160" y="690" width="20" height="20" as="geometry" />
        </mxCell>
        <mxCell id="mgSoafnXSVISCSBCxPJr-75" value="M" style="ellipse;whiteSpace=wrap;html=1;aspect=fixed;shadow=1;" parent="1" vertex="1">
          <mxGeometry x="900" y="2025" width="20" height="20" as="geometry" />
        </mxCell>
        <mxCell id="mgSoafnXSVISCSBCxPJr-76" value="N" style="ellipse;whiteSpace=wrap;html=1;" parent="1" vertex="1">
          <mxGeometry x="1550" y="840" width="20" height="20" as="geometry" />
        </mxCell>
        <mxCell id="mgSoafnXSVISCSBCxPJr-77" value="M" style="ellipse;whiteSpace=wrap;html=1;aspect=fixed;shadow=1;" parent="1" vertex="1">
          <mxGeometry x="940" y="2025" width="20" height="20" as="geometry" />
        </mxCell>
        <mxCell id="mgSoafnXSVISCSBCxPJr-79" value="1" style="ellipse;whiteSpace=wrap;html=1;aspect=fixed;" parent="1" vertex="1">
          <mxGeometry x="2170" y="1970" width="20" height="20" as="geometry" />
        </mxCell>
        <mxCell id="mgSoafnXSVISCSBCxPJr-80" value="1" style="ellipse;whiteSpace=wrap;html=1;aspect=fixed;" parent="1" vertex="1">
          <mxGeometry x="2270" y="2020" width="20" height="20" as="geometry" />
        </mxCell>
        <mxCell id="mgSoafnXSVISCSBCxPJr-81" value="1" style="ellipse;whiteSpace=wrap;html=1;aspect=fixed;" parent="1" vertex="1">
          <mxGeometry x="2240" y="1920" width="20" height="20" as="geometry" />
        </mxCell>
        <mxCell id="mgSoafnXSVISCSBCxPJr-82" value="M" style="ellipse;whiteSpace=wrap;html=1;aspect=fixed;shadow=1;" parent="1" vertex="1">
          <mxGeometry x="90" y="630" width="20" height="20" as="geometry" />
        </mxCell>
        <mxCell id="mgSoafnXSVISCSBCxPJr-83" value="M" style="ellipse;whiteSpace=wrap;html=1;aspect=fixed;shadow=1;" parent="1" vertex="1">
          <mxGeometry x="1610" y="840" width="20" height="20" as="geometry" />
        </mxCell>
        <mxCell id="mgSoafnXSVISCSBCxPJr-84" value="M" style="ellipse;whiteSpace=wrap;html=1;aspect=fixed;shadow=1;" parent="1" vertex="1">
          <mxGeometry x="1490" y="690" width="20" height="20" as="geometry" />
        </mxCell>
        <mxCell id="mgSoafnXSVISCSBCxPJr-85" value="N" style="ellipse;whiteSpace=wrap;html=1;" parent="1" vertex="1">
          <mxGeometry x="2130" y="955" width="20" height="20" as="geometry" />
        </mxCell>
        <mxCell id="mgSoafnXSVISCSBCxPJr-86" value="M" style="ellipse;whiteSpace=wrap;html=1;aspect=fixed;shadow=1;" parent="1" vertex="1">
          <mxGeometry x="1400" y="690" width="20" height="20" as="geometry" />
        </mxCell>
        <mxCell id="mgSoafnXSVISCSBCxPJr-87" value="1" style="ellipse;whiteSpace=wrap;html=1;aspect=fixed;" parent="1" vertex="1">
          <mxGeometry x="220" y="690" width="20" height="20" as="geometry" />
        </mxCell>
        <mxCell id="KStBTOUxjdI1xtURFmDi-1" value="Guardian_id" style="ellipse;whiteSpace=wrap;html=1;" parent="1" vertex="1">
          <mxGeometry x="2180" y="870" width="120" height="40" as="geometry" />
        </mxCell>
        <mxCell id="KStBTOUxjdI1xtURFmDi-2" value="" style="endArrow=none;html=1;rounded=0;entryX=1;entryY=0;entryDx=0;entryDy=0;exitX=0.5;exitY=1;exitDx=0;exitDy=0;" parent="1" source="KStBTOUxjdI1xtURFmDi-1" target="mgSoafnXSVISCSBCxPJr-45" edge="1">
          <mxGeometry width="50" height="50" relative="1" as="geometry">
            <mxPoint x="2060" y="940" as="sourcePoint" />
            <mxPoint x="2110" y="890" as="targetPoint" />
          </mxGeometry>
        </mxCell>
        <mxCell id="KStBTOUxjdI1xtURFmDi-3" value="M" style="ellipse;whiteSpace=wrap;html=1;aspect=fixed;shadow=1;" parent="1" vertex="1">
          <mxGeometry x="680" y="1095" width="20" height="20" as="geometry" />
        </mxCell>
        <mxCell id="KStBTOUxjdI1xtURFmDi-4" value="1" style="ellipse;whiteSpace=wrap;html=1;aspect=fixed;" parent="1" vertex="1">
          <mxGeometry x="1410" y="790" width="20" height="20" as="geometry" />
        </mxCell>
        <mxCell id="gEX2F00gpGbF2Y0C2jKH-1" value="Mark" style="ellipse;whiteSpace=wrap;html=1;" vertex="1" parent="1">
          <mxGeometry x="773.9" y="1230" width="80" height="30" as="geometry" />
        </mxCell>
        <mxCell id="gEX2F00gpGbF2Y0C2jKH-2" value="" style="endArrow=none;html=1;rounded=0;entryX=0;entryY=0.5;entryDx=0;entryDy=0;exitX=1;exitY=1;exitDx=0;exitDy=0;" edge="1" parent="1" source="Wp1VHhU4FTjO8Ii-gMhq-35" target="gEX2F00gpGbF2Y0C2jKH-1">
          <mxGeometry width="50" height="50" relative="1" as="geometry">
            <mxPoint x="670" y="1230" as="sourcePoint" />
            <mxPoint x="720" y="1180" as="targetPoint" />
          </mxGeometry>
        </mxCell>
        <mxCell id="gEX2F00gpGbF2Y0C2jKH-3" value="EXAM_TYPE" style="rounded=0;whiteSpace=wrap;html=1;" vertex="1" parent="1">
          <mxGeometry x="1210" y="1030" width="120" height="60" as="geometry" />
        </mxCell>
        <mxCell id="gEX2F00gpGbF2Y0C2jKH-4" value="HAS" style="rhombus;whiteSpace=wrap;html=1;" vertex="1" parent="1">
          <mxGeometry x="1000" y="1025" width="80" height="45" as="geometry" />
        </mxCell>
        <mxCell id="gEX2F00gpGbF2Y0C2jKH-5" value="" style="endArrow=none;html=1;rounded=0;exitX=1;exitY=0;exitDx=0;exitDy=0;entryX=0;entryY=0.5;entryDx=0;entryDy=0;" edge="1" parent="1" source="Wp1VHhU4FTjO8Ii-gMhq-35" target="gEX2F00gpGbF2Y0C2jKH-4">
          <mxGeometry width="50" height="50" relative="1" as="geometry">
            <mxPoint x="950" y="1150" as="sourcePoint" />
            <mxPoint x="1000" y="1100" as="targetPoint" />
          </mxGeometry>
        </mxCell>
        <mxCell id="gEX2F00gpGbF2Y0C2jKH-6" value="" style="endArrow=none;html=1;rounded=0;entryX=0;entryY=0.5;entryDx=0;entryDy=0;exitX=1;exitY=0.5;exitDx=0;exitDy=0;" edge="1" parent="1" source="gEX2F00gpGbF2Y0C2jKH-4" target="gEX2F00gpGbF2Y0C2jKH-3">
          <mxGeometry width="50" height="50" relative="1" as="geometry">
            <mxPoint x="950" y="1150" as="sourcePoint" />
            <mxPoint x="1000" y="1100" as="targetPoint" />
          </mxGeometry>
        </mxCell>
        <mxCell id="gEX2F00gpGbF2Y0C2jKH-7" value="Type_name" style="ellipse;whiteSpace=wrap;html=1;" vertex="1" parent="1">
          <mxGeometry x="1215" y="1170" width="90" height="40" as="geometry" />
        </mxCell>
        <mxCell id="gEX2F00gpGbF2Y0C2jKH-8" value="&lt;u&gt;Type_id&lt;/u&gt;" style="ellipse;whiteSpace=wrap;html=1;" vertex="1" parent="1">
          <mxGeometry x="1340" y="1140" width="100" height="40" as="geometry" />
        </mxCell>
        <mxCell id="gEX2F00gpGbF2Y0C2jKH-9" value="" style="endArrow=none;html=1;rounded=0;entryX=1;entryY=1;entryDx=0;entryDy=0;exitX=0;exitY=0;exitDx=0;exitDy=0;" edge="1" parent="1" source="gEX2F00gpGbF2Y0C2jKH-8" target="gEX2F00gpGbF2Y0C2jKH-3">
          <mxGeometry width="50" height="50" relative="1" as="geometry">
            <mxPoint x="1340" y="1280" as="sourcePoint" />
            <mxPoint x="1390" y="1230" as="targetPoint" />
          </mxGeometry>
        </mxCell>
        <mxCell id="gEX2F00gpGbF2Y0C2jKH-10" value="" style="endArrow=none;html=1;rounded=0;entryX=1;entryY=1;entryDx=0;entryDy=0;exitX=1;exitY=0;exitDx=0;exitDy=0;" edge="1" parent="1" source="gEX2F00gpGbF2Y0C2jKH-7" target="gEX2F00gpGbF2Y0C2jKH-3">
          <mxGeometry width="50" height="50" relative="1" as="geometry">
            <mxPoint x="1340" y="1280" as="sourcePoint" />
            <mxPoint x="1390" y="1230" as="targetPoint" />
          </mxGeometry>
        </mxCell>
        <mxCell id="gEX2F00gpGbF2Y0C2jKH-11" value="1" style="ellipse;whiteSpace=wrap;html=1;aspect=fixed;" vertex="1" parent="1">
          <mxGeometry x="1180" y="1030" width="20" height="20" as="geometry" />
        </mxCell>
        <mxCell id="gEX2F00gpGbF2Y0C2jKH-13" value="M" style="ellipse;whiteSpace=wrap;html=1;aspect=fixed;shadow=1;" vertex="1" parent="1">
          <mxGeometry x="753.9" y="1095" width="20" height="20" as="geometry" />
        </mxCell>
        <mxCell id="gEX2F00gpGbF2Y0C2jKH-14" value="&lt;u&gt;Id&lt;/u&gt;" style="ellipse;whiteSpace=wrap;html=1;" vertex="1" parent="1">
          <mxGeometry x="2125" y="620" width="80" height="40" as="geometry" />
        </mxCell>
        <mxCell id="gEX2F00gpGbF2Y0C2jKH-15" value="" style="endArrow=none;html=1;rounded=0;exitX=1;exitY=0;exitDx=0;exitDy=0;entryX=0;entryY=0.5;entryDx=0;entryDy=0;" edge="1" parent="1" source="469mjGibJvNOkohn6Mcn-30" target="gEX2F00gpGbF2Y0C2jKH-14">
          <mxGeometry width="50" height="50" relative="1" as="geometry">
            <mxPoint x="1980" y="640" as="sourcePoint" />
            <mxPoint x="2030" y="590" as="targetPoint" />
          </mxGeometry>
        </mxCell>
        <mxCell id="gEX2F00gpGbF2Y0C2jKH-16" value="&lt;u&gt;id&lt;/u&gt;" style="ellipse;whiteSpace=wrap;html=1;" vertex="1" parent="1">
          <mxGeometry x="2550" y="535" width="60" height="35" as="geometry" />
        </mxCell>
        <mxCell id="gEX2F00gpGbF2Y0C2jKH-18" value="" style="endArrow=none;html=1;rounded=0;exitX=0.5;exitY=0;exitDx=0;exitDy=0;entryX=0;entryY=0.5;entryDx=0;entryDy=0;" edge="1" parent="1" source="469mjGibJvNOkohn6Mcn-31" target="gEX2F00gpGbF2Y0C2jKH-16">
          <mxGeometry width="50" height="50" relative="1" as="geometry">
            <mxPoint x="2500" y="670" as="sourcePoint" />
            <mxPoint x="2550" y="620" as="targetPoint" />
          </mxGeometry>
        </mxCell>
        <mxCell id="gEX2F00gpGbF2Y0C2jKH-19" value="Start_date" style="ellipse;whiteSpace=wrap;html=1;" vertex="1" parent="1">
          <mxGeometry x="582.1" y="1560" width="84" height="40" as="geometry" />
        </mxCell>
        <mxCell id="gEX2F00gpGbF2Y0C2jKH-21" value="End_date" style="ellipse;whiteSpace=wrap;html=1;" vertex="1" parent="1">
          <mxGeometry x="570" y="1620" width="80" height="40" as="geometry" />
        </mxCell>
        <mxCell id="gEX2F00gpGbF2Y0C2jKH-22" value="" style="endArrow=none;html=1;rounded=0;exitX=1;exitY=0.5;exitDx=0;exitDy=0;entryX=0;entryY=0.5;entryDx=0;entryDy=0;" edge="1" parent="1" source="AB7soGHePCYamvRZRI3P-33" target="gEX2F00gpGbF2Y0C2jKH-19">
          <mxGeometry width="50" height="50" relative="1" as="geometry">
            <mxPoint x="470" y="1500" as="sourcePoint" />
            <mxPoint x="520" y="1450" as="targetPoint" />
          </mxGeometry>
        </mxCell>
        <mxCell id="gEX2F00gpGbF2Y0C2jKH-23" value="" style="endArrow=none;html=1;rounded=0;exitX=1;exitY=0.5;exitDx=0;exitDy=0;entryX=-0.012;entryY=0.34;entryDx=0;entryDy=0;entryPerimeter=0;" edge="1" parent="1" source="AB7soGHePCYamvRZRI3P-33" target="gEX2F00gpGbF2Y0C2jKH-21">
          <mxGeometry width="50" height="50" relative="1" as="geometry">
            <mxPoint x="470" y="1500" as="sourcePoint" />
            <mxPoint x="520" y="1450" as="targetPoint" />
          </mxGeometry>
        </mxCell>
        <mxCell id="gEX2F00gpGbF2Y0C2jKH-24" value="Gender" style="ellipse;whiteSpace=wrap;html=1;" vertex="1" parent="1">
          <mxGeometry x="1590" y="540" width="83" height="30" as="geometry" />
        </mxCell>
        <mxCell id="gEX2F00gpGbF2Y0C2jKH-25" value="" style="endArrow=none;html=1;rounded=0;exitX=1;exitY=0;exitDx=0;exitDy=0;entryX=0;entryY=1;entryDx=0;entryDy=0;" edge="1" parent="1" source="469mjGibJvNOkohn6Mcn-29" target="gEX2F00gpGbF2Y0C2jKH-24">
          <mxGeometry width="50" height="50" relative="1" as="geometry">
            <mxPoint x="1570" y="800" as="sourcePoint" />
            <mxPoint x="1620" y="750" as="targetPoint" />
          </mxGeometry>
        </mxCell>
        <mxCell id="gEX2F00gpGbF2Y0C2jKH-26" value="Type" style="ellipse;whiteSpace=wrap;html=1;" vertex="1" parent="1">
          <mxGeometry x="1250" y="70" width="70" height="30" as="geometry" />
        </mxCell>
        <mxCell id="gEX2F00gpGbF2Y0C2jKH-27" value="" style="endArrow=none;html=1;rounded=0;entryX=0.5;entryY=1;entryDx=0;entryDy=0;exitX=0.25;exitY=0;exitDx=0;exitDy=0;" edge="1" parent="1" source="469mjGibJvNOkohn6Mcn-1" target="gEX2F00gpGbF2Y0C2jKH-26">
          <mxGeometry width="50" height="50" relative="1" as="geometry">
            <mxPoint x="1230" y="150" as="sourcePoint" />
            <mxPoint x="1360" y="90" as="targetPoint" />
          </mxGeometry>
        </mxCell>
        <mxCell id="gEX2F00gpGbF2Y0C2jKH-31" value="" style="endArrow=none;dashed=1;html=1;rounded=0;" edge="1" parent="1">
          <mxGeometry width="50" height="50" relative="1" as="geometry">
            <mxPoint x="2205" y="899.86" as="sourcePoint" />
            <mxPoint x="2275" y="899.86" as="targetPoint" />
          </mxGeometry>
        </mxCell>
      </root>
    </mxGraphModel>
  </diagram>
</mxfile>
